<?xml version="1.0" encoding="UTF-8"?>
<svg width="274px" height="36px" viewBox="0 0 274 36" version="1.1" xmlns="http://www.w3.org/2000/svg" xmlns:xlink="http://www.w3.org/1999/xlink">
    <title>logo-flexcompute</title>
    <g id="Page-1" stroke="none" stroke-width="1" fill="none" fill-rule="evenodd">
        <g id="logo-flexcompute" transform="translate(0.000000, 0.000000)" fill-rule="nonzero">
            <path d="M39.5884589,12.0781333 C39.6404539,12.0280889 39.7109195,12 39.7844328,12 L46.3889938,12 C46.6358544,12 46.7595156,12.2872 46.5849677,12.4552 L27.7448744,30.5885333 C27.6928794,30.6385778 27.6224138,30.6666667 27.5489005,30.6666667 L20.9443395,30.6666667 C20.6974789,30.6666667 20.5738177,30.3794667 20.7483656,30.2114667 L39.5884589,12.0781333 Z" id="Path" fill="#FFFFFF"></path>
            <path d="M37.1906042,0 C37.1178689,0 37.048149,0.02844684 36.9967044,0.07908093 L30.6807054,6.3 L20.8823679,6.3 L14.3466098,6.3 C14.2738745,6.3 14.2041546,6.328449 14.1527099,6.379083 L9.21840713,11.23911 L0.0808395054,20.23911 C-0.0918510412,20.40921 0.030455705,20.7 0.274677195,20.7 L6.8094074,20.7 C6.88210613,20.7 6.95183514,20.67156 7.00324326,20.62089 L16.060549,11.7 L25.1981467,11.7 L21.0972842,15.73911 C20.9245836,15.90921 21.0469361,16.2 21.2911841,16.2 L27.8258457,16.2 C27.898581,16.2 27.9683009,16.17156 28.0197456,16.12089 L43.9191657,0.4609188 C44.0918663,0.2908287 43.9695139,0 43.7252659,0 L37.1906042,0 Z M17.0878891,19.8 C17.0151538,19.8 16.9454339,19.82844 16.8939893,19.87911 L0.994596542,35.53911 C0.821905081,35.70921 0.944211828,36 1.18844154,36 L7.72316718,36 C7.79586591,36 7.86559492,35.97156 7.91700304,35.92089 L23.8164506,20.26089 C23.9891512,20.09079 23.8667987,19.8 23.6225508,19.8 L17.0878891,19.8 Z" id="Shape" fill="#C43959"></path>
            <g id="Text" transform="translate(54.000000, 6.666667)">
                <path d="M4.31463893,15.0201504 L4.31463893,22 L0,22 L0,5.36812844 C0,2.40331656 2.43873388,5.63120713e-05 5.44660118,5.63120713e-05 L13.4121766,5.63120713e-05 C13.622521,5.63120713e-05 13.7933183,0.167843875 13.7933183,0.375742269 L13.7933183,3.84843637 C13.7933183,4.05633477 13.622521,4.22468727 13.4121766,4.22468727 L7.03765295,4.22468727 C5.53371929,4.22468727 4.31463893,5.4263174 4.31463893,6.90872334 L4.31463893,10.7672723 L12.3375289,10.7672723 C12.5484464,10.7672723 12.7186706,10.9356248 12.7186706,11.1435232 L12.7186706,14.6444644 C12.7186706,14.8517979 12.5484464,15.0201504 12.3375289,15.0201504 L4.31463893,15.0201504 Z" id="Fill-1" fill="#C43959"></path>
                <path d="M20.5443735,22 C17.5778446,22 15.1726272,19.5961748 15.1726272,16.6313629 L15.1726272,0.420937573 C15.1726272,0.112479629 15.3693407,5.63120713e-05 15.6220157,5.63120713e-05 L18.9503164,5.63120713e-05 C19.2312549,5.63120713e-05 19.3720067,0.168408816 19.3720067,0.420937573 L19.3720067,15.090768 C19.3720067,16.5737389 20.5743328,17.775369 22.0575972,17.775369 L29.2336805,17.775369 C29.5146189,17.775369 29.6553708,18.0278978 29.6553708,18.2527444 L29.6553708,21.5785538 C29.6271073,21.8316475 29.4869208,21.9717529 29.2336805,22 L20.5443735,22 Z" id="Fill-4" fill="#C43959"></path>
                <path d="M35.928155,15.0909455 C35.928155,16.5733133 37.1159242,17.7749126 38.5812305,17.7749126 L47.0592337,17.7749126 C47.3367707,17.7749126 47.5584653,17.9438257 47.5584653,18.2522757 L47.5584653,21.5226369 C47.5584653,21.7858927 47.3473808,22 47.0865965,22 L37.0310437,22 C34.1004311,22 31.7243341,19.5962365 31.7243341,16.6315008 L31.7243341,5.36855553 C31.7243341,2.40381977 34.1004311,5.63120713e-05 37.0310437,5.63120713e-05 L47.1698018,5.63120713e-05 C47.3998727,5.63120713e-05 47.5863866,0.188741857 47.5863866,0.421491692 L47.5863866,3.71953425 C47.5863866,4.05623061 47.4473388,4.22457879 47.1418805,4.22457879 L38.5812305,4.22457879 C37.1159242,4.22457879 35.928155,5.42674298 35.928155,6.90911086 L35.928155,8.48412673 L44.8383788,8.48412673 C45.0673329,8.48412673 45.2544052,8.6733772 45.2544052,8.90499718 L45.2544052,12.2589675 C45.2544052,12.5216584 45.0422038,12.7363306 44.7830948,12.7363306 L35.928155,12.7363306 L35.928155,15.0909455 Z" id="Fill-6" fill="#C43959"></path>
                <path d="M208.341768,15.0909455 C208.341768,16.5733133 209.529538,17.7749126 210.994844,17.7749126 L219.472847,17.7749126 C219.750384,17.7749126 219.972079,17.9438257 219.972079,18.2522757 L219.972079,21.5226369 C219.972079,21.7858927 219.760994,22 219.50021,22 L209.444657,22 C206.514044,22 204.137948,19.5962365 204.137948,16.6315008 L204.137948,5.36855553 C204.137948,2.40381977 206.514044,5.63120713e-05 209.444657,5.63120713e-05 L219.583415,5.63120713e-05 C219.813486,5.63120713e-05 220,0.188741857 220,0.421491692 L220,3.71953425 C220,4.05623061 219.860952,4.22457879 219.555494,4.22457879 L210.994844,4.22457879 C209.529538,4.22457879 208.341768,5.42674298 208.341768,6.90911086 L208.341768,8.48412673 L217.251992,8.48412673 C217.480946,8.48412673 217.668019,8.6733772 217.668019,8.90499718 L217.668019,12.2589675 C217.668019,12.5216584 217.455817,12.7363306 217.196708,12.7363306 L208.341768,12.7363306 L208.341768,15.0909455 Z" id="Fill-8" fill="#FFFFFF"></path>
                <path d="M69.2783886,22 L65.6094242,21.9983053 C65.4798593,21.9983053 65.3597478,21.9293878 65.2930191,21.8169731 L59.9919828,12.9085353 L54.6915025,21.8169731 C54.6247738,21.9293878 54.5046622,21.9983053 54.3750974,21.9983053 L50.7155862,21.9983053 C50.4258726,21.9983053 50.2484856,21.6751838 50.4008494,21.4249341 L56.7461893,10.9991808 L50.4008494,0.57342755 C50.2484856,0.322612939 50.4258726,5.63120713e-05 50.7155862,5.63120713e-05 L54.3428452,5.63120713e-05 C54.471854,5.63120713e-05 54.5919656,0.0684089424 54.6592503,0.180258701 L59.9919828,9.08982634 L65.3252713,0.180258701 C65.392556,0.0684089424 65.5121115,5.63120713e-05 65.6416764,5.63120713e-05 L69.2850615,5.63120713e-05 C69.574219,5.63120713e-05 69.751606,0.322048041 69.5997983,0.572862652 L63.2661359,11.0268608 L69.5931255,21.4266288 C69.7454892,21.6768785 69.5681022,22 69.2783886,22" id="Fill-10" fill="#C43959"></path>
                <path d="M103.448413,5.63120713e-05 C97.3477375,5.63120713e-05 92.4139261,4.94837707 92.4139261,11.0000282 C92.4139261,17.0516792 97.3477375,22 103.448413,22 C105.394508,22 107.460181,21.4966373 109.521319,20.36393 C110.808893,19.6571885 111.900384,18.5984885 112.64958,17.3375395 C117.698434,8.83969267 111.561489,5.63120713e-05 103.448413,5.63120713e-05 M103.448413,3.78798766 C106.036029,3.78798766 108.447396,5.19469147 109.742338,7.45897615 C110.540838,8.85551102 111.555822,11.7457507 109.380207,15.4077001 C108.976707,16.0867595 108.37599,16.6686491 107.688,17.0465948 C106.279149,17.8199994 104.853297,18.2126336 103.448413,18.2126336 C99.4593135,18.2126336 96.2137429,14.9772148 96.2137429,11.0000282 C96.2137429,7.02340642 99.4593135,3.78798766 103.448413,3.78798766" id="Fill-12" fill="#FFFFFF"></path>
                <path d="M88.080902,16.3435976 C87.9395311,16.2029923 87.7189926,16.2041216 87.5708359,16.3379508 C86.2583488,17.5254735 84.5398445,18.2138187 82.7348212,18.2138187 C81.6553133,18.2138187 80.636312,17.9653594 79.7157049,17.5395905 C79.6393647,17.5045803 79.5647209,17.4667467 79.490077,17.4289131 C78.6294112,16.99298 77.8677049,16.3932895 77.2473696,15.666546 C77.2015654,15.6129014 77.1551958,15.5598214 77.111088,15.5044827 C76.805727,15.1250176 76.530902,14.7195772 76.3069705,14.2830793 C76.3041431,14.2774325 76.3018812,14.271221 76.2990538,14.2655742 C76.0807772,13.8375466 75.9139595,13.3807202 75.7838983,12.9086475 C75.7674993,12.847662 75.7465764,12.7883706 75.7318738,12.7262558 C75.6657123,12.4585973 75.6515752,12.1734338 75.6165152,11.8944817 C75.5803243,11.5946365 75.5345201,11.2930972 75.5345201,11.0000282 C75.5345201,10.7069591 75.5803243,10.4054198 75.6165152,10.1055746 C75.6515752,9.82662254 75.6657123,9.54145899 75.7318738,9.27380054 C75.7465764,9.21225039 75.7674993,9.15295896 75.7838983,9.09140881 C75.9139595,8.61990078 76.0807772,8.16250975 76.2990538,7.7344821 C76.3018812,7.7288353 76.3041431,7.72318849 76.3069705,7.71754169 C76.530902,7.28104384 76.805727,6.87560339 77.1105226,6.49613825 C77.1551958,6.44079958 77.2015654,6.38715495 77.247935,6.33351033 C77.8682704,5.60676681 78.6288457,5.00764103 79.4889461,4.57227253 C79.5647209,4.53387428 79.6399302,4.49547602 79.7168359,4.46046584 C80.1324663,4.26790986 80.568454,4.11205811 81.0219718,4.00081609 C81.2719155,3.94208934 81.5258176,3.92797234 81.7774577,3.89522088 C82.0330562,3.86077538 82.2846964,3.8144716 82.5476462,3.80769544 C82.932175,3.79809587 83.3189657,3.82915329 83.7057564,3.87828047 C83.8030195,3.8918328 83.9031101,3.88844472 83.9992423,3.90594981 C84.1377857,3.9291017 84.2768947,3.98274632 84.4154381,4.01323906 C85.5859889,4.29896728 86.6768065,4.85348331 87.5708359,5.66267015 C87.7189926,5.79649938 87.9395311,5.79762874 88.080902,5.65645867 L90.2314357,3.50897957 C90.3835507,3.35764525 90.3835507,3.10297445 90.2269118,2.95672226 C88.2578983,1.12546411 85.6221799,5.63120713e-05 82.7348212,5.63120713e-05 C76.6473916,5.63120713e-05 71.7242924,4.94665556 71.7242924,10.9955107 C71.7242924,10.9972048 71.7242924,10.9983341 71.7242924,11.0000282 C71.7242924,11.0017222 71.7242924,11.0034162 71.7242924,11.0051103 C71.7242924,17.0539654 76.6473916,22 82.7348212,22 C85.6221799,22 88.2578983,20.8751569 90.2269118,19.0433341 C90.3835507,18.8970819 90.3835507,18.6429757 90.2314357,18.4910767 L88.080902,16.3435976 Z" id="Fill-14" fill="#FFFFFF"></path>
                <path d="M202.247284,5.63120713e-05 L195.821598,5.63120713e-05 L194.371614,5.63120713e-05 L186.02806,5.63120713e-05 C185.772383,5.63120713e-05 185.573904,0.168408816 185.517277,0.421502514 L185.517277,3.6913827 C185.517277,4.0280877 185.715756,4.22468727 186.02806,4.22468727 L191.999018,4.22468727 L191.999018,21.5508717 C191.999018,21.8039654 192.198069,22 192.454318,22 L192.482346,22 L195.79357,22 L195.821598,22 C196.077275,22 196.276898,21.8039654 196.276898,21.5508717 L196.276898,4.22468727 L202.247284,4.22468727 C202.56016,4.22468727 202.758639,4.0280877 202.758639,3.6913827 L202.758639,0.421502514 C202.702012,0.168408816 202.502961,5.63120713e-05 202.247284,5.63120713e-05" id="Fill-16" fill="#FFFFFF"></path>
                <path d="M122.88844,0.278617259 L116.567447,21.5190068 C116.496104,21.7592215 116.678171,22 116.931582,22 L120.61859,22 C120.78696,22 120.935353,21.8906065 120.982725,21.7304634 L125.94763,5.04851359 L129.146081,15.797274 L127.443551,21.5190068 C127.372208,21.7592215 127.554275,22 127.807686,22 L131.495265,22 C131.663634,22 131.812028,21.8906065 131.8594,21.7304634 L136.817456,5.07050507 L141.775512,21.7304634 C141.822883,21.8906065 141.971277,22 142.139647,22 L145.826655,22 C146.080636,22 146.262704,21.7592215 146.191361,21.5190068 L139.864089,0.269595112 C139.816717,0.110015887 139.668324,0.00062235499 139.499954,0.00062235499 L134.126967,5.41697981e-05 C133.958597,-0.000505413383 133.810204,0.109452003 133.762832,0.269031228 L131.385682,8.27280337 L129.005107,0.274106185 C128.957735,0.114526961 128.809342,0.00513342848 128.640972,0.00513342848 L123.252575,0.00908061778 C123.084205,0.00964450197 122.935812,0.119038034 122.88844,0.278617259" id="Fill-18" fill="#FFFFFF"></path>
                <path d="M175.100916,21.9793864 C172.539262,22.1499571 170.100722,21.2564379 168.275487,19.5044174 C166.421451,17.7252863 165.514481,15.1718097 165.517291,12.6025185 L165.530294,0.375087261 C165.530858,0.167804372 165.69915,-0.000507074101 165.906409,5.49018262e-05 L168.941878,0.00288174697 C169.149137,0.00288174697 169.317429,0.171757997 169.316865,0.379040886 L169.303311,13.0289451 C169.302746,14.4132786 169.840377,15.7151506 170.818504,16.6939551 C171.947416,17.8246918 173.506659,18.3685975 175.127458,18.1743051 C177.773822,17.8574504 179.661743,15.4186288 179.661743,12.753321 L179.661743,0.377346475 C179.661743,0.169498783 179.830035,0.00118733643 180.037294,0.00118733643 L183.072763,0.00118733643 C183.280022,0.00118733643 183.448314,0.169498783 183.448314,0.377346475 L183.448314,12.6013889 C183.448314,17.3920523 179.880297,21.661402 175.100916,21.9793864" id="Fill-20" fill="#FFFFFF"></path>
                <path d="M155.910366,0 L147.963567,0 C147.755351,0 147.586282,0.167809972 147.586282,0.374475274 L147.586282,3.4012491 C147.586282,3.60791441 147.755351,3.77572438 147.963567,3.77572438 L156.057876,3.77572438 C157.791115,3.77572438 159.402941,4.97686086 159.617398,6.68424286 C159.749022,7.73502611 159.394999,8.74751715 158.656316,9.47957408 C158.018053,10.1108324 157.103493,10.4706665 156.272332,10.4560254 L151.39033,10.440258 L151.39033,7.69617078 C151.39033,7.48781612 151.219559,7.3188799 151.010209,7.32056926 L147.96073,7.34196785 C147.753649,7.34365721 147.586282,7.51146719 147.586282,7.71756937 L147.586282,21.6243985 C147.586282,21.8316269 147.755351,22 147.963567,22 L151.012478,22 C151.221261,22 151.39033,21.8316269 151.39033,21.6243985 L151.39033,14.2159824 L156.26212,14.2317498 L156.278573,14.2317498 C158.191093,14.2317498 159.989009,13.4929354 161.343261,12.1527081 C162.686734,10.8220539 163.432792,9.0561073 163.44811,7.17528412 C163.481016,3.22611856 159.889156,0 155.910366,0" id="Fill-22" fill="#FFFFFF"></path>
            </g>
        </g>
    </g>
</svg>