<svg width="204" height="30" viewBox="0 0 204 30" fill="none" xmlns="http://www.w3.org/2000/svg">
<path fill-rule="evenodd" clip-rule="evenodd" d="M32.8366 10.9306H28.2801C28.2247 10.9306 28.1739 10.9537 28.1324 10.9906L16.7064 22.7351C16.5818 22.8644 16.6741 23.0814 16.8541 23.0814H21.4107C21.4661 23.0814 21.5169 23.0583 21.5584 23.0214L32.989 11.2769C33.1136 11.1476 33.0213 10.9306 32.8366 10.9306Z" fill="black"/>
<path fill-rule="evenodd" clip-rule="evenodd" d="M31.1193 3.63647H26.572C26.5166 3.63647 26.4658 3.65956 26.4289 3.69649L22.5694 7.57901L12.3576 7.51438L3.69698 16.2951C3.56771 16.4243 3.66004 16.6413 3.8447 16.6413H8.39662C8.45202 16.6413 8.5028 16.6182 8.54435 16.5813L13.798 11.2538H18.9131L4.2325 26.0129C4.10323 26.1422 4.19556 26.3637 4.37561 26.3637H8.92291C8.97831 26.3637 9.02909 26.3407 9.06602 26.3037L31.267 3.98272C31.3963 3.85807 31.3039 3.63647 31.1193 3.63647Z" fill="#00643C"/>
<path fill-rule="evenodd" clip-rule="evenodd" d="M192.754 20.6392V16.7059H200.094V14.0006H192.754V10.4736H200.237V7.76829H189.513V23.3445H200.422V20.6392H192.754Z" fill="black"/>
<path fill-rule="evenodd" clip-rule="evenodd" d="M174.625 10.4736H179.463V23.3445H182.704V10.4736H187.542V7.76829H174.625V10.4736Z" fill="black"/>
<path fill-rule="evenodd" clip-rule="evenodd" d="M169.57 17.3799C169.57 18.5895 169.302 19.5128 168.748 20.1268C168.194 20.7408 167.395 21.0501 166.329 21.0501C165.262 21.0501 164.441 20.7408 163.887 20.1499C163.333 19.5543 163.046 18.6541 163.046 17.4446V7.78675H159.806V17.1122L159.824 17.1306C159.824 21.4333 161.998 23.5892 166.324 23.5892C170.65 23.5892 172.806 21.4148 172.806 17.0937V7.76829H169.565V17.3799H169.57Z" fill="black"/>
<path fill-rule="evenodd" clip-rule="evenodd" d="M154.954 8.40537C154.012 7.9945 152.862 7.76829 151.528 7.76829H145.379V23.3445H148.62V17.957H151.533C152.867 17.957 154.016 17.7539 154.958 17.343C155.9 16.9321 156.62 16.3597 157.11 15.6026C157.604 14.8455 157.848 13.9406 157.848 12.8973C157.848 11.8309 157.604 10.9075 157.11 10.1504C156.616 9.3887 155.895 8.81163 154.954 8.40537ZM153.763 14.6562C153.269 15.0671 152.53 15.2702 151.565 15.2702H148.61V10.4921H151.584C152.548 10.4921 153.264 10.6952 153.758 11.1061C154.247 11.5169 154.497 12.1125 154.497 12.888C154.501 13.6498 154.257 14.2453 153.763 14.6562Z" fill="black"/>
<path fill-rule="evenodd" clip-rule="evenodd" d="M132.623 22.8321L129.364 7.76829H123.09V23.3445H126.326V8.40537L129.733 23.3445H135.495L138.92 8.29919V23.3445H142.138V7.76829H135.864L132.623 22.8321Z" fill="black"/>
<path fill-rule="evenodd" clip-rule="evenodd" d="M116.918 8.50693C115.727 7.85138 114.374 7.52361 112.86 7.52361C111.341 7.52361 109.988 7.85138 108.797 8.50693C107.606 9.16248 106.688 10.1043 106.027 11.3138C105.372 12.5233 105.044 13.936 105.044 15.5564C105.044 17.1768 105.372 18.5895 106.027 19.799C106.683 21.0086 107.606 21.9503 108.797 22.6059C109.988 23.2614 111.341 23.5892 112.86 23.5892C114.374 23.5892 115.731 23.2614 116.918 22.6059C118.104 21.9503 119.028 21.0086 119.688 19.799C120.343 18.5895 120.671 17.1768 120.671 15.5564C120.671 13.936 120.343 12.5233 119.688 11.3138C119.032 10.1043 118.109 9.16248 116.918 8.50693ZM116.733 18.4694C116.364 19.2912 115.851 19.9237 115.173 20.3761C114.494 20.8285 113.719 21.0501 112.837 21.0501C111.955 21.0501 111.175 20.8239 110.496 20.3761C109.818 19.9237 109.305 19.2912 108.94 18.4694C108.571 17.6477 108.386 16.6875 108.386 15.598C108.386 14.5131 108.571 13.5482 108.94 12.7265C109.31 11.9047 109.822 11.2722 110.496 10.8198C111.175 10.3674 111.955 10.1458 112.837 10.1458C113.719 10.1458 114.494 10.372 115.173 10.8198C115.851 11.2722 116.364 11.9047 116.733 12.7265C117.103 13.5482 117.287 14.5084 117.287 15.598C117.287 16.6828 117.103 17.6477 116.733 18.4694Z" fill="black"/>
<path fill-rule="evenodd" clip-rule="evenodd" d="M98.8533 20.2699C98.1562 20.7823 97.2975 21.0501 96.2911 21.0501C95.4509 21.0501 94.7122 20.8239 94.0567 20.3715C93.4012 19.919 92.8887 19.2866 92.5194 18.4648C92.1501 17.6431 91.9654 16.6828 91.9654 15.5933C91.9654 14.5084 92.1501 13.5436 92.5009 12.7218C92.8472 11.9001 93.3411 11.2676 93.9967 10.8152C94.6522 10.3628 95.3909 10.1366 96.2311 10.1366C97.256 10.1366 98.0962 10.4043 98.7333 10.9352C99.3703 11.4661 99.8597 12.2048 100.192 13.1281H103.576C103.308 11.9786 102.837 10.9953 102.163 10.155C101.485 9.31483 100.645 8.67775 99.6427 8.22994C98.6363 7.77752 97.5099 7.55131 96.2819 7.55131C94.823 7.55131 93.5119 7.87908 92.3624 8.53463C91.2129 9.19018 90.3127 10.132 89.6571 11.3415C89.0016 12.551 88.6738 13.9637 88.6738 15.5841C88.6738 17.2045 89.0016 18.6172 89.6571 19.8267C90.3127 21.0362 91.2129 21.978 92.3624 22.6336L92.4271 22.592C93.5766 23.2476 94.8646 23.5754 96.3003 23.5754C98.1654 23.5754 99.7443 23.1045 101.055 22.1812C102.366 21.2578 103.271 19.8636 103.761 17.9986H100.377C100.067 19.0004 99.555 19.7575 98.8533 20.2699Z" fill="black"/>
<path fill-rule="evenodd" clip-rule="evenodd" d="M88.4845 7.76829H84.6297L81.0426 12.8326L77.451 7.76829H73.5962L78.9098 15.0855L72.9637 23.3445H76.837L81.0426 17.4215L85.2483 23.3445H89.1216L83.1524 15.0671L88.4845 7.76829Z" fill="#00643C"/>
<path fill-rule="evenodd" clip-rule="evenodd" d="M64.4092 16.7059H71.7495V14.0006H64.4092V10.4736H71.8926V7.76829H61.1684V23.3445H72.0773V20.6392H64.4092V16.7059Z" fill="#00643C"/>
<path fill-rule="evenodd" clip-rule="evenodd" d="M52.4524 7.76829H49.2115V23.3445H59.2017V20.6392H52.4524V7.76829Z" fill="#00643C"/>
<path fill-rule="evenodd" clip-rule="evenodd" d="M36.2575 23.3445H39.4983V16.9506H46.6124V14.2453H39.4983V10.4736H46.7371V7.76829H36.2575V23.3445Z" fill="#00643C"/>
</svg>
