<svg width="153" height="50" viewBox="0 0 153 50" fill="none" xmlns="http://www.w3.org/2000/svg">
<path d="M18.6409 22.4263H10.2988V26.0477H18.4918V29.8896H10.2988V37.1794H5.55664V18.5845H18.6409V22.4263Z" fill="black"/>
<path d="M25.1211 33.3405H33.0397V37.1823H20.3789V18.5874H25.1211V33.3405Z" fill="black"/>
<path d="M33.2852 27.882C33.2852 21.9355 37.2817 18.2671 42.9932 18.2671C48.7047 18.2671 52.6744 21.9385 52.6744 27.882C52.6744 33.8256 48.6779 37.497 42.9932 37.497C37.3086 37.497 33.2852 33.8256 33.2852 27.882ZM47.81 27.882C47.81 24.1636 45.8982 21.8885 42.9932 21.8885C40.0883 21.8885 38.1765 24.1636 38.1765 27.882C38.1765 31.6004 40.0644 33.8756 42.9932 33.8756C45.922 33.8756 47.81 31.6004 47.81 27.882Z" fill="black"/>
<path d="M75.662 18.5845H80.1567L76.8789 37.1794H68.4622L66.2761 19.9543L64.0929 37.1794H55.6762L52.3984 18.5845H56.8931L59.798 35.8567L62.1065 18.5845H70.4486L72.757 35.8567L75.662 18.5845Z" fill="black"/>
<path d="M95.3961 32.0178C95.3961 35.6157 92.2198 37.497 87.4776 37.497C82.7354 37.497 80.1287 35.1718 79.7559 31.6004H84.5219C84.6203 33.0437 85.5896 33.999 87.4776 33.999C88.9658 33.999 90.5794 33.2906 90.5794 31.7239C90.5794 29.9631 88.766 29.3753 86.6335 29.3753H85.3182V25.6804H86.6335C88.9927 25.6804 90.0336 24.775 90.0336 23.6492C90.0336 22.4499 88.9897 21.765 87.4776 21.765C85.864 21.765 84.9693 22.6204 84.8709 23.8932H80.1048C80.3792 20.5422 83.4303 18.2671 87.4776 18.2671C91.5248 18.2671 94.8503 20.2012 94.8503 23.1113C94.8503 26.0213 92.5926 27.1001 90.135 27.541C92.5419 27.8115 95.3991 29.0078 95.3991 32.0178H95.3961Z" fill="#00643C"/>
<path d="M112.532 31.0625C112.532 34.7809 109.329 37.497 104.563 37.497C99.7969 37.497 96.3223 34.5369 96.3223 27.882C96.3223 21.2271 99.8237 18.2671 104.539 18.2671C108.983 18.2671 111.491 20.6157 112.085 23.5287H107.319C106.97 22.4764 106.126 21.768 104.638 21.768C101.882 21.768 100.865 24.7045 100.987 28.0084C101.583 26.2712 103.394 24.778 105.926 24.778C109.848 24.778 112.529 27.1501 112.529 31.0654L112.532 31.0625ZM107.715 31.0625C107.715 29.3253 106.522 28.126 104.539 28.126C102.556 28.126 101.261 29.3253 101.261 30.989C101.261 32.6527 102.427 33.999 104.539 33.999C106.4 33.999 107.715 32.8497 107.715 31.0625Z" fill="#00643C"/>
<path d="M113.422 27.9085C113.422 21.571 116.401 18.27 121.54 18.27C126.679 18.27 129.659 21.574 129.659 27.9085C129.659 34.243 126.679 37.4999 121.54 37.4999C116.401 37.4999 113.422 34.2224 113.422 27.9085ZM124.842 27.9085C124.842 23.7491 123.774 21.768 121.54 21.768C119.306 21.768 118.215 23.7491 118.215 27.9085C118.215 32.0678 119.283 34.0019 121.54 34.0019C123.798 34.0019 124.842 32.0443 124.842 27.9085Z" fill="#00643C"/>
<path d="M147.004 29.8046C137.591 29.6547 135.461 25.6865 132.237 19.6782C132.005 19.2432 131.763 18.7935 131.513 18.3379C128.056 11.9887 121.154 11.874 117.447 11.8123C117.206 11.8093 116.982 11.8035 116.773 11.8005H114.918V11.1421H116.782C117 11.148 117.223 11.1509 117.459 11.1538C121.044 11.2126 128.503 11.3361 132.154 18.0439C132.404 18.5025 132.646 18.9522 132.879 19.3902C136.097 25.3867 138.038 29.0051 147.013 29.1491L147.001 29.8076L147.004 29.8046Z" fill="#002114"/>
<path d="M147.004 27.9348C137.633 27.7849 135.512 23.8314 132.297 17.8437C132.064 17.4087 131.823 16.9589 131.572 16.5004C128.098 10.1159 121.169 10.0013 117.447 9.93955C117.209 9.93661 116.982 9.93073 116.773 9.92779H114.918V9.39575H116.782C116.997 9.40163 117.22 9.40457 117.459 9.40751C121.029 9.4663 128.462 9.58976 132.091 16.2623C132.342 16.7209 132.583 17.1706 132.816 17.6056C136.046 23.6227 137.994 27.2558 147.013 27.3999L147.004 27.9319V27.9348Z" fill="#00321E"/>
<path d="M147.008 26.0655C137.678 25.9156 135.564 21.9768 132.364 16.0097C132.131 15.5746 131.889 15.1249 131.639 14.6664C128.146 8.24954 121.191 8.13196 117.454 8.07023C117.215 8.06729 116.989 8.06142 116.78 8.05848H114.922V7.65283H116.786C117.001 7.65871 117.224 7.66165 117.463 7.66459C121.021 7.72338 128.424 7.84683 132.036 14.4841C132.286 14.9427 132.528 15.3924 132.76 15.8274C136.002 21.868 137.959 25.5129 147.017 25.6569L147.008 26.0626V26.0655Z" fill="#004328"/>
<path d="M147.004 24.196C137.716 24.049 135.611 20.1219 132.419 14.1754C132.187 13.7404 131.945 13.2906 131.695 12.8321C128.181 6.37998 121.199 6.2624 117.447 6.20067C117.209 6.19773 116.982 6.19185 116.773 6.18892H114.912V5.90967H116.776C116.988 5.91555 117.212 5.91849 117.45 5.92143C121.265 5.98609 128.369 6.10367 131.963 12.7057C132.214 13.1642 132.452 13.614 132.688 14.049C135.942 20.1101 137.904 23.7697 147.004 23.9138L146.998 24.193L147.004 24.196Z" fill="#005332"/>
<path d="M147.011 22.3264C137.768 22.1794 135.665 18.2641 132.486 12.3411C132.253 11.9061 132.012 11.4563 131.761 10.9978C128.23 4.51042 121.221 4.39284 117.454 4.33111C117.215 4.32817 116.989 4.32229 116.783 4.31936H114.922V4.1665H116.786C116.995 4.17238 117.221 4.17532 117.46 4.17826C121.26 4.23999 128.337 4.35757 131.913 10.9272C132.164 11.3858 132.402 11.8355 132.638 12.2706C135.904 18.3523 137.872 22.0266 147.017 22.1706V22.3235L147.011 22.3264Z" fill="#00643C"/>
<path d="M147.004 31.6737C137.549 31.5238 135.411 27.5408 132.178 21.512C131.945 21.077 131.704 20.6302 131.453 20.1717C128.017 13.8577 121.142 13.7431 117.447 13.6814C117.206 13.6784 116.982 13.6725 116.77 13.6696H114.918V12.8848H116.782C117 12.8906 117.223 12.8936 117.462 12.8965C121.059 12.9553 128.548 13.0817 132.217 19.8219C132.467 20.2804 132.709 20.7302 132.941 21.1681C136.147 27.144 138.083 30.7507 147.016 30.8918L147.001 31.6767L147.004 31.6737Z" fill="#00110A"/>
<path d="M147.002 33.5433C137.505 33.3934 135.361 29.3957 132.113 23.3463C131.88 22.9113 131.639 22.4645 131.391 22.0059C127.973 15.7243 121.125 15.6126 117.448 15.5509C117.206 15.548 116.983 15.5421 116.771 15.5392H114.922V14.6279H116.786C117.007 14.6338 117.227 14.6367 117.466 14.6397C121.078 14.6985 128.594 14.8249 132.28 21.6003C132.531 22.0589 132.772 22.5086 133.005 22.9466C136.199 28.8989 138.129 32.4939 147.02 32.635L147.002 33.5462V33.5433Z" fill="black"/>
</svg>
