<svg width="140" height="50" viewBox="0 0 140 50" fill="none" xmlns="http://www.w3.org/2000/svg">
<path d="M102.835 30.9975H114.061C115.087 30.9975 115.916 30.1672 115.916 29.149V20.8241C115.916 19.8015 115.083 18.9756 114.061 18.9756H103.239C103.094 18.9756 102.954 18.9931 102.813 19.0193V20.5794C103.129 20.3696 103.515 20.2385 103.844 20.2385H113.859C114.302 20.2385 114.657 20.5925 114.657 21.0339V28.9436C114.657 29.385 114.302 29.739 113.859 29.739H103.046C102.607 29.739 102.248 29.3806 102.248 28.9436V26.8984H100.98V29.149C100.98 30.1716 101.814 30.9975 102.835 30.9975Z" fill="#00643C"/>
<path d="M99.293 34.2667H117.592C119.319 34.2667 120.718 32.8727 120.718 31.1509V18.8536C120.718 17.1318 119.319 15.7378 117.592 15.7378H102.814V17.0007H117.451C118.556 17.0007 119.451 17.8922 119.451 18.9935V31.0154C119.451 32.1167 118.556 33.0081 117.451 33.0081H99.4289C98.3239 33.0081 97.4294 32.1167 97.4294 31.0154V26.8988H96.1621V31.1552C96.1621 32.877 97.5609 34.2711 99.2886 34.2711L99.293 34.2667Z" fill="black"/>
<path d="M110.537 27.7288C110.862 27.7288 111.125 27.4666 111.125 27.1432V22.7907C111.125 22.4673 110.862 22.2051 110.537 22.2051H106.384C106.06 22.2051 105.797 22.4673 105.797 22.7907V27.1432C105.797 27.4666 106.06 27.7288 106.384 27.7288H110.537ZM107.06 23.468H109.857V26.4659H107.06V23.468Z" fill="black"/>
<path d="M124.649 9.26978H102.816V10.5327H124.649C127.078 10.5327 129.047 12.4949 129.047 14.9159V35.1578C129.047 37.5788 127.078 39.541 124.649 39.541H92.2084C89.7791 39.541 87.8102 37.5788 87.8102 35.1578V26.8941H86.543V35.1578C86.543 38.278 89.0775 40.8039 92.2084 40.8039H124.649C127.78 40.8039 130.314 38.278 130.314 35.1578V14.9159C130.314 11.7957 127.78 9.26978 124.649 9.26978Z" fill="black"/>
<path d="M95.7478 37.5352H121.119C123.549 37.5352 125.513 35.573 125.513 33.1564V16.8824C125.513 14.4614 123.544 12.5037 121.119 12.5037H102.812V13.7666H121.049C122.816 13.7666 124.25 15.1956 124.25 16.9567V33.0909C124.25 34.852 122.816 36.281 121.049 36.281H95.8179C94.0508 36.281 92.6169 34.852 92.6169 33.0909V26.9029H91.3496V33.1608C91.3496 35.5818 93.3185 37.5395 95.7434 37.5395L95.7478 37.5352Z" fill="#00643C"/>
<path d="M15.9123 9.01631C20.0824 9.01631 22.2749 10.9697 22.2749 13.9763C22.2749 16.9829 20.0824 18.9363 15.9123 18.9363H13.9697V23.5729H9.68555V9.01631H15.9123ZM15.9123 15.5713C17.219 15.5713 17.8724 14.9202 17.8724 13.9807C17.8724 13.0411 17.219 12.4118 15.9123 12.4118H13.9697V15.5713H15.9123Z" fill="black"/>
<path d="M32.5226 9.01631H36.8111V23.5772H32.5226V18.1191H28.0236V23.5772H23.735V9.01631H28.0236V14.2472H32.5226V9.01631Z" fill="black"/>
<path d="M38.5172 16.2968C38.5172 11.5815 41.6876 8.74976 46.2086 8.74976C50.7295 8.74976 53.9174 11.5859 53.9174 16.2968C53.9174 21.0077 50.747 23.8438 46.2086 23.8438C41.6701 23.8438 38.5172 21.0077 38.5172 16.2968ZM49.5149 16.2968C49.5149 13.5743 48.2257 12.0229 46.2086 12.0229C44.1915 12.0229 42.9198 13.5743 42.9198 16.2968C42.9198 19.0193 44.1871 20.5707 46.2086 20.5707C48.23 20.5707 49.5149 19.0193 49.5149 16.2968Z" fill="black"/>
<path d="M66.796 9.01631V12.4643H62.6258V23.5772H58.3373V12.4643H54.1847V9.01631H66.796Z" fill="black"/>
<path d="M67.0633 16.2968C67.0633 11.5815 70.2337 8.74976 74.7547 8.74976C79.2756 8.74976 82.4635 11.5859 82.4635 16.2968C82.4635 21.0077 79.2931 23.8438 74.7547 23.8438C70.2162 23.8438 67.0633 21.0077 67.0633 16.2968ZM78.0566 16.2968C78.0566 13.5743 76.7674 12.0229 74.7503 12.0229C72.7332 12.0229 71.4615 13.5743 71.4615 16.2968C71.4615 19.0193 72.7288 20.5707 74.7503 20.5707C76.7718 20.5707 78.0566 19.0193 78.0566 16.2968Z" fill="black"/>
<path d="M95.031 9.01631H98.9161V23.5772H91.5537L88.0764 10.2618V23.5772H84.1737V9.01631H91.5537L95.0354 22.3318V9.01631H95.031Z" fill="black"/>
<path d="M20.1043 29.8658H13.9741V32.0508H19.9728V35.5162H13.9741V40.9744H9.68555V26.4135H20.1043V29.8658Z" fill="#00643C"/>
<path d="M21.3148 33.6984C21.3148 28.9831 24.4852 26.1514 29.0061 26.1514C33.5271 26.1514 36.715 28.9875 36.715 33.6984C36.715 38.4093 33.5446 41.2454 29.0061 41.2454C24.4676 41.2454 21.3148 38.4093 21.3148 33.6984ZM32.3124 33.6984C32.3124 30.9759 31.0232 29.4245 29.0061 29.4245C26.989 29.4245 25.7174 30.9759 25.7174 33.6984C25.7174 36.4209 26.9846 37.9723 29.0061 37.9723C31.0276 37.9723 32.3124 36.4209 32.3124 33.6984Z" fill="#00643C"/>
<path d="M47.2432 40.9789L44.3798 36.0538H42.7091V40.9789H38.4206V26.4179H44.7087C48.5938 26.4179 50.9749 28.332 50.9749 31.2643C50.9749 33.0473 50.111 34.4631 48.493 35.2672L52.0492 40.9745H47.2432V40.9789ZM42.7091 29.7304V32.7763H44.6912C45.9234 32.7763 46.5767 32.1427 46.5767 31.2643C46.5767 30.3859 45.9234 29.7304 44.6912 29.7304H42.7091Z" fill="#00643C"/>
<path d="M59.3368 32.2825H67.4491V40.9789H63.9893V37.7232C63.4148 39.3314 62.2397 41.2498 59.1658 41.2498C55.8989 41.2498 52.3032 38.7414 52.3032 33.7203C52.3032 28.9875 55.4385 26.1514 59.9945 26.1514C63.7043 26.1514 66.2607 27.7202 67.243 31.0545H62.7659C62.3054 30.0407 61.4591 29.4245 59.9989 29.4245C57.9599 29.4245 56.7102 30.9934 56.7102 33.7159C56.7102 36.4384 58.0169 37.9679 60.1875 37.9679C62.016 37.9679 63.1649 36.9541 63.2614 35.477H59.3412V32.2781L59.3368 32.2825Z" fill="#00643C"/>
<path d="M73.7727 37.5309H80.3678V40.9789H69.4886V26.4179H80.1968V29.8659H73.7771V31.8411H80.0609V35.2891H73.7771V37.5309H73.7727Z" fill="#00643C"/>
</svg>
