<svg xmlns="http://www.w3.org/2000/svg" width="122" height="49.528" viewBox="0 0 122 49.528">
  <g id="Layer_2" data-name="Layer 2" transform="translate(0 0.003)">
    <g id="Layer_1" data-name="Layer 1" transform="translate(0 -0.003)">
      <path id="Path_45" data-name="Path 45" d="M583.851,31.248a28.132,28.132,0,0,0-41.211,8.4c.152-.017.305-.033.459-.047,8.154-13.421,26.892-17.826,40.242-7.675a27.625,27.625,0,0,1,8.5,33.461h.57A28.115,28.115,0,0,0,583.851,31.248Z" transform="translate(-476.1 -22.467)" fill="#4772ae"/>
      <path id="Path_46" data-name="Path 46" d="M619.162,72.465A24.953,24.953,0,0,0,590.877,51.12,24.636,24.636,0,0,0,574,61.68h.637a24.315,24.315,0,0,1,41.031,25.839h.744A24.9,24.9,0,0,0,619.162,72.465Z" transform="translate(-503.615 -44.603)" fill="#b5475d"/>
      <path id="Path_47" data-name="Path 47" d="M644.566,95.327a21.773,21.773,0,0,0-24.749-18.673,21.548,21.548,0,0,0-13.327,7.452h1a20.954,20.954,0,0,1,4.782-3.722c16.029-8.985,35.01,5.335,30.77,23.215a21.012,21.012,0,0,1-2.707,6.348h.871A21.6,21.6,0,0,0,644.566,95.327Z" transform="translate(-532.12 -67.029)" fill="#4772ae"/>
      <path id="Path_48" data-name="Path 48" d="M673.6,118.117a18.629,18.629,0,0,0-13.865-15.659,18.385,18.385,0,0,0-16.606,4h1.636c.435-.3.882-.581,1.349-.844a17.709,17.709,0,0,1,25.845,19.5A17.347,17.347,0,0,1,668.4,132.3h.972A18.25,18.25,0,0,0,673.6,118.117Z" transform="translate(-564.268 -89.385)" fill="#b5475d"/>
      <path id="Path_49" data-name="Path 49" d="M711.194,141a15.41,15.41,0,0,0-17.658-13.329,15.909,15.909,0,0,0-4.016,1.238h5.945a14.02,14.02,0,0,1,12.444,7.561,14.2,14.2,0,0,1,1.52,10.258,14.025,14.025,0,0,1-5.038,8.023H705.5A15.127,15.127,0,0,0,711.194,141Z" transform="translate(-604.969 -111.831)" fill="#4772ae"/>
      <path id="Path_50" data-name="Path 50" d="M559.948,6.288A31.3,31.3,0,0,0,513.26,17.13h.268C522.04.733,544.064-5.054,559.6,6.756a30.914,30.914,0,0,1,10,36.35c.123.022.245.044.368.07A31.242,31.242,0,0,0,559.948,6.288Z" transform="translate(-450.323 0.003)" fill="#b5475d"/>
      <path id="Path_51" data-name="Path 51" d="M687.843,162.535a9.911,9.911,0,0,0-4.047-4.157,12.831,12.831,0,0,0-6.254-1.448H668.89v24.184h8.584a12.991,12.991,0,0,0,6.309-1.453,9.89,9.89,0,0,0,4.066-4.177,15.452,15.452,0,0,0-.006-12.949Zm-13.68-1.04h3.106a8,8,0,0,1,3.714.782,5.011,5.011,0,0,1,2.253,2.428A10.371,10.371,0,0,1,684,169a10.534,10.534,0,0,1-.765,4.322,5.01,5.01,0,0,1-2.259,2.439,8.04,8.04,0,0,1-3.72.79h-3.094Z" transform="translate(-586.869 -137.686)" fill="#b5475d"/>
      <path id="Path_52" data-name="Path 52" d="M512.971,163.824l7.084-6.894-.637.074H504.4l-1.767,4.129h7.205l-6.048,6.842,5.626-.757h.011a5.248,5.248,0,1,1-5.539,5.235v-.235h-4.2v.235a9.426,9.426,0,1,0,13.281-8.629Z" transform="translate(-438.416 -137.686)" fill="#b5475d"/>
      <path id="Path_53" data-name="Path 53" d="M0,162.264l.135-5.214H17.187l-1.547,5.214H11.1V181.27H5.045V162.264Z" transform="translate(0 -137.792)" fill="#221f20"/>
      <path id="Path_54" data-name="Path 54" d="M141.246,158.491a3.066,3.066,0,0,1,.891-2.207,2.9,2.9,0,0,1,2.169-.926,3.1,3.1,0,0,1,3.095,3.095,2.943,2.943,0,0,1-.914,2.157,2.862,2.862,0,0,1-2.085.909,3.159,3.159,0,0,1-2.221-.874A2.82,2.82,0,0,1,141.246,158.491Zm.168,21.29V165.05l5.55-2.86v17.59Z" transform="translate(-123.926 -136.307)" fill="#221f20"/>
      <path id="Path_55" data-name="Path 55" d="M212.833,160.848v-6.733l5.549-2.9v24.93H213.1v-1.883a4.461,4.461,0,0,1-2.792,1.985,12.835,12.835,0,0,1-2.59.4,6.672,6.672,0,0,1-4.825-1.985,7.148,7.148,0,0,1-2.321-3.883q-.287-1.9-.319-2.406t-.034-.941a9.242,9.242,0,0,1,1.681-5.6,6.1,6.1,0,0,1,3.2-2.64,18.909,18.909,0,0,1,1.918-.368c.269-.022.559-.034.873-.034a6.918,6.918,0,0,1,4.608,1.717Zm-6.9,6.558a5.331,5.331,0,0,0,.79,3.028,2.953,2.953,0,0,0,1.665,1.378,6.4,6.4,0,0,0,1.311.2,2.969,2.969,0,0,0,2.237-.925,3.413,3.413,0,0,0,.893-2.472,10.516,10.516,0,0,0-.522-3.985,2.2,2.2,0,0,0-1.5-1.349,7.4,7.4,0,0,0-1.349-.218,3.188,3.188,0,0,0-2.521,1.177A4.7,4.7,0,0,0,205.938,167.406Z" transform="translate(-175.669 -132.677)" fill="#221f20"/>
      <path id="Path_56" data-name="Path 56" d="M353,216.3h6.054l3.3,9.319.337,1.409c.022.2.051.392.085.573a3.788,3.788,0,0,1,.05.672l.2-1.278.3-1.447,3.433-9.248h6.121l-9.86,23H356.8l3.2-6.622Z" transform="translate(-309.714 -189.776)" fill="#221f20"/>
    </g>
  </g>
</svg>
