<svg width="116" height="50" viewBox="0 0 116 50" fill="none" xmlns="http://www.w3.org/2000/svg">
<mask id="mask0_708_49772" style="mask-type:luminance" maskUnits="userSpaceOnUse" x="5" y="4" width="105" height="34">
<path d="M109.723 4.1665H5.55664V37.4998H109.723V4.1665Z" fill="white"/>
</mask>
<g mask="url(#mask0_708_49772)">
<path d="M20.4662 19.3804V23.0597H15.2097V37.1954H10.8103V23.0597H5.55664V19.3804H20.4662Z" fill="black"/>
<path d="M22.3438 37.1954V19.3804H26.766V37.1954H22.3438Z" fill="black"/>
<path d="M36.7663 19.3806C42.1599 19.3806 45.8423 22.1458 45.8423 28.2866C45.8423 34.4274 42.1599 37.1927 36.7663 37.1927H29.9844V19.3777H36.7663V19.3806ZM36.8578 33.5134C39.6831 33.5134 41.3029 31.6853 41.3029 28.2866C41.3029 24.8879 39.6831 23.0598 36.8578 23.0598H34.4037V33.5134H36.8578Z" fill="black"/>
<path d="M62.6274 19.3804L56.1225 30.2331V37.1954H51.7002V30.2331L45.1953 19.3804H50.1947L53.9228 26.0129L57.628 19.3804H62.6274Z" fill="black"/>
<path d="M76.9588 32.2496C76.9588 35.6946 73.9963 37.4995 69.574 37.4995C65.1517 37.4995 62.7206 35.2723 62.375 31.8504H66.8201C66.9115 33.233 67.8143 34.1471 69.574 34.1471C70.9624 34.1471 72.468 33.4673 72.468 31.9661C72.468 30.2798 70.7767 29.7157 68.7856 29.7157H67.5572V26.1753H68.7856C70.9853 26.1753 71.9566 25.3075 71.9566 24.2286C71.9566 23.0803 70.9853 22.4237 69.5712 22.4237C68.0657 22.4237 67.2344 23.2452 67.1401 24.463H62.6949C62.9492 21.2523 65.7974 19.0713 69.5712 19.0713C73.345 19.0713 76.4476 20.9225 76.4476 23.7138C76.4476 26.505 74.342 27.5348 72.0481 27.9571C74.2935 28.2146 76.956 29.3628 76.956 32.2467L76.9588 32.2496Z" fill="#00643C"/>
<path d="M85.2702 19.3806C90.664 19.3806 94.3466 22.1458 94.3466 28.2866C94.3466 34.4274 90.664 37.1927 85.2702 37.1927H78.4883V19.3777H85.2702V19.3806ZM85.3619 33.5134C88.1876 33.5134 89.807 31.6853 89.807 28.2866C89.807 24.8879 88.1876 23.0598 85.3619 23.0598H82.9077V33.5134H85.3619Z" fill="#00643C"/>
<path d="M98.9797 10.8651C88.5186 2.90777 74.0088 6.51763 67.9238 17.272C68.0381 17.2575 68.1552 17.2459 68.2695 17.2373C74.4145 6.99779 88.5353 3.63669 98.5971 11.38C106.779 17.5815 108.785 28.3619 105.002 36.9122H105.43C109.342 28.2375 107.328 17.2749 98.9797 10.8651Z" fill="black"/>
<path d="M104.857 25.4268C103.577 15.0398 93.7553 7.53659 83.54 9.13904C77.8803 10.0415 73.5439 13.1221 70.8242 17.1976H71.3042C77.106 9.28945 88.6817 7.00727 97.0608 13.4402C104.574 19.15 106.177 29.2478 102.217 36.913H102.777C104.534 33.6386 105.371 29.725 104.854 25.4268H104.857Z" fill="#00643C"/>
<path d="M102.517 25.7596C101.423 16.6597 92.8126 10.0821 83.8709 11.511C79.5966 12.2053 76.1945 14.3283 73.8262 17.1977H74.5833C75.6091 16.1159 76.8084 15.1498 78.1883 14.3573C90.2667 7.50201 104.574 18.4271 101.377 32.071C100.946 33.8586 100.243 35.4755 99.3341 36.9131H99.9917C101.988 33.8499 103.017 30.0231 102.517 25.7596Z" fill="black"/>
<path d="M100.177 26.0883C99.5371 20.4248 95.2037 15.4727 89.7301 14.1393C85.2475 12.9302 80.5683 14.2752 77.2148 17.1938H78.4489C78.7773 16.9682 79.1142 16.7512 79.4683 16.5488C89.6128 10.8823 101.543 19.9937 98.9461 31.4279C98.4572 33.5423 97.5121 35.3848 96.2579 36.9091H96.9891C99.3405 34.1266 100.672 30.3692 100.18 26.0854L100.177 26.0883Z" fill="#00643C"/>
<path d="M97.8335 26.4215C97.1335 19.9221 90.8911 15.1494 84.5265 16.2514C83.4321 16.4394 82.4237 16.7663 81.498 17.1973H85.9835C90.0626 17.1973 93.5994 19.5373 95.3626 22.965C96.6196 25.1806 97.1362 27.8909 96.5078 30.7921C95.9425 33.3578 94.5453 35.4462 92.7057 36.9127H93.5425C96.4564 34.5842 98.3105 30.8471 97.8307 26.4215H97.8335Z" fill="black"/>
<path d="M100.396 8.9684C88.4116 -0.180625 71.5825 4.38955 65.209 17.241H65.4118C71.8253 4.72797 88.4234 0.313993 100.13 9.32417C109.026 16.0666 111.398 27.6338 107.664 37.0605C107.758 37.0778 107.852 37.0952 107.943 37.1155C111.794 27.5933 109.423 15.8728 100.396 8.9684Z" fill="#00643C"/>
</g>
</svg>
